<svg class="animated" id="freepik_stories-face-mask-emoji" xmlns="http://www.w3.org/2000/svg" viewBox="0 0 500 500" version="1.1" xmlns:xlink="http://www.w3.org/1999/xlink" xmlns:svgjs="http://svgjs.com/svgjs"><style>svg#freepik_stories-face-mask-emoji:not(.animated) .animable {opacity: 0;}svg#freepik_stories-face-mask-emoji.animated #freepik--background-complete--inject-15 {animation: 1.5s Infinite  linear floating;animation-delay: 0s;}            @keyframes floating {                0% {                    opacity: 1;                    transform: translateY(0px);                }                50% {                    transform: translateY(-10px);                }                100% {                    opacity: 1;                    transform: translateY(0px);                }            }        </style><g id="freepik--background-complete--inject-15" class="animable" style="transform-origin: 250.95px 252.539px;"><g id="el9fni6e4hqgn"><circle cx="369.1" cy="93.18" r="64.06" style="fill: rgb(235, 235, 235); transform-origin: 369.1px 93.18px; transform: rotate(-6.91deg);" class="animable" id="elp9dwzha25ma"></circle></g><g id="elt024duh58vn"><path d="M349.8,154.27A64.07,64.07,0,1,1,419.81,54a55.66,55.66,0,1,0,12.52,28.81,64.08,64.08,0,0,1-82.53,71.44Z" style="fill: rgb(219, 219, 219); opacity: 0.5; transform-origin: 369.108px 93.1666px;" class="animable" id="ele71sxcrepff"></path></g><path d="M352.35,74.6a9,9,0,1,1-5.88-11.32A9,9,0,0,1,352.35,74.6Z" style="fill: rgb(166, 166, 166); transform-origin: 343.775px 71.867px;" id="elbeh6ktkgzdt" class="animable"></path><path d="M410.69,93a9,9,0,1,1-5.88-11.32A9,9,0,0,1,410.69,93Z" style="fill: rgb(166, 166, 166); transform-origin: 402.115px 90.267px;" id="elph602xleo8p" class="animable"></path><path d="M386.71,82.58a13.59,13.59,0,1,1-25.92-8.19Z" style="fill: rgb(166, 166, 166); transform-origin: 373.434px 83.2333px;" id="el7olma22sj8" class="animable"></path><path d="M381.28,89.8a13.6,13.6,0,0,1-20.2-6.38,16.26,16.26,0,0,1,20.2,6.38Z" style="fill: rgb(219, 219, 219); transform-origin: 371.18px 87.0948px;" id="elhvvqkscnrsr" class="animable"></path><path d="M399.44,127.44C395,130.65,369,132.05,358,128.67s-31.73-19.1-33.6-24.26c-5.33-14.67-1.54-37.56-.13-37.24s14.84,6.11,22.24,6.93c5.63.62,21.53-1.1,28,.87s18.63,12.32,23.64,15c6.59,3.48,20.95,6.22,22.3,6.74S412.08,118.28,399.44,127.44Z" style="fill: rgb(219, 219, 219); transform-origin: 371.109px 98.8943px;" id="elpnocypusuvl" class="animable"></path><path d="M413.3,101.28c-7.65-3-12.83-5.08-20.45-8.15-7.12-2.86-12.44-8-19.25-11.27-6.51-3.08-13.71-2.06-20.67-2.43-8.7-.45-17.06-2.69-25.58-4.3a.08.08,0,0,0-.05.16,110.44,110.44,0,0,0,21.88,5.2c8.77,1,18-.88,25.95,3.86,5.93,3.55,10.83,7.41,17.38,9.88,7.69,2.9,12.89,4.83,20.62,7.62C413.49,102,413.66,101.42,413.3,101.28Z" style="fill: rgb(235, 235, 235); transform-origin: 370.37px 88.5004px;" id="el7v2m69xoo9s" class="animable"></path><path d="M390.93,122.12c-10.27.38-22.67,2.68-32.47-1.17-10.47-4.1-19.51-11.77-27.6-19.37a.09.09,0,0,0-.13.12c7,8.23,16.45,15.85,26.59,19.74s23.14,2.2,33.63.91C391.09,122.34,391.07,122.11,390.93,122.12Z" style="fill: rgb(235, 235, 235); transform-origin: 360.881px 112.705px;" id="eluc0masn4o1o" class="animable"></path><path d="M401.54,109.11c-10.69-5.73-21.46-14.09-33-17.93-11.19-3.72-24.37-4-36.05-3.93a.07.07,0,0,0,0,.13c11.71.64,24.68.64,35.85,4.46,11.54,4,22.16,12.13,33.07,17.53C401.77,109.55,401.9,109.3,401.54,109.11Z" style="fill: rgb(235, 235, 235); transform-origin: 367.1px 98.3368px;" id="elxjljlbxgxk" class="animable"></path><path d="M397.87,115.18c-11.78-.32-23.59-.07-35-3.61-11-3.41-20.51-9.94-30.12-16,0,0,0,0,0,0,9.28,6.6,19,13,30,16.43,11.24,3.51,23.43,3.86,35.1,3.44A.14.14,0,0,0,397.87,115.18Z" style="fill: rgb(235, 235, 235); transform-origin: 365.35px 105.575px;" id="elok4roh8l5l" class="animable"></path><path d="M324.29,67.17a11.51,11.51,0,0,1-2.7-2.83A20.54,20.54,0,0,1,319.68,61a23.4,23.4,0,0,1-1.32-3.62c-.16-.62-.3-1.25-.41-1.88a15.89,15.89,0,0,1-.19-2,18.25,18.25,0,0,1,1.07,1.63c.33.54.63,1.1.92,1.66.6,1.11,1.13,2.24,1.65,3.37s1,2.27,1.49,3.42S323.82,65.94,324.29,67.17Z" style="fill: rgb(219, 219, 219); transform-origin: 321.025px 60.335px;" id="ellasnm5zj4vc" class="animable"></path><path d="M325.89,106.72c-.63-.43-1.25-.87-1.87-1.33-.31-.22-.62-.45-.92-.69l-.87-.75-1.71-1.55c-.53-.55-1-1.11-1.58-1.67a47.32,47.32,0,0,1-5.51-7.39,54,54,0,0,1-4.1-8.23,41.66,41.66,0,0,1-2.5-8.82c1.22,2.8,2.5,5.52,3.85,8.21s2.82,5.3,4.37,7.86a84,84,0,0,0,5,7.42c.46.6.92,1.18,1.37,1.79l1.45,1.73.71.88c.26.27.52.54.77.83C324.88,105.57,325.39,106.13,325.89,106.72Z" style="fill: rgb(219, 219, 219); transform-origin: 316.36px 91.505px;" id="eld6h8myh3l5n" class="animable"></path><path d="M420.34,96.65c1.07-.76,2.1-1.47,3.15-2.16s2.09-1.35,3.15-2,2.14-1.28,3.26-1.87c.55-.29,1.11-.59,1.7-.85a16.87,16.87,0,0,1,1.79-.76,14.11,14.11,0,0,1-1.25,1.51c-.45.46-.91.91-1.4,1.33a23.72,23.72,0,0,1-3.11,2.26,21,21,0,0,1-3.47,1.7A11.77,11.77,0,0,1,420.34,96.65Z" style="fill: rgb(219, 219, 219); transform-origin: 426.865px 92.83px;" id="elh8i457u5l9" class="animable"></path><path d="M396.83,128.49q1.11-.3,2.22-.57l1.1-.25,1.08-.33,2.17-.62c.71-.25,1.43-.47,2.14-.71a82.91,82.91,0,0,0,8.32-3.33c2.72-1.25,5.39-2.59,8-4.05s5.22-3,7.8-4.64a41.74,41.74,0,0,1-7,5.9,54.3,54.3,0,0,1-8,4.51,46.48,46.48,0,0,1-8.7,3l-2.25.5-2.29.32-1.14.14-1.15.05C398.36,128.47,397.59,128.49,396.83,128.49Z" style="fill: rgb(219, 219, 219); transform-origin: 413.245px 121.24px;" id="el6pfm47yq966" class="animable"></path><g id="ellkwrlac83i"><circle cx="157.83" cy="410.55" r="60.34" style="fill: rgb(235, 235, 235); transform-origin: 157.83px 410.55px; transform: rotate(-76.64deg);" class="animable" id="elbjhh13zqbv"></circle></g><g id="el2r980j595js"><path d="M169.39,469.77a60.34,60.34,0,1,1,12.75-114.45,52.43,52.43,0,1,0,23.33,18.18,60.36,60.36,0,0,1-36.08,96.27Z" style="fill: rgb(219, 219, 219); opacity: 0.5; transform-origin: 157.829px 410.547px;" class="animable" id="elfoplq2nj1h"></path></g><path d="M119.6,409.28a9.05,9.05,0,0,1,.29-7.2,8.81,8.81,0,0,1,2.39-3.1,8.28,8.28,0,0,1,3.64-1.69,8.43,8.43,0,0,1,4,.22,8.74,8.74,0,0,1,3.37,2,9,9,0,0,1,2.93,6.58,12.64,12.64,0,0,0-4.24-5,7.26,7.26,0,0,0-10.3,2A12.66,12.66,0,0,0,119.6,409.28Z" style="fill: rgb(166, 166, 166); transform-origin: 127.605px 403.213px;" id="elgupd19egdya" class="animable"></path><path d="M192.17,391.69a8.5,8.5,0,1,1-10-6.71A8.5,8.5,0,0,1,192.17,391.69Z" style="fill: rgb(166, 166, 166); transform-origin: 183.827px 393.317px;" id="elz8jqzwxxnk" class="animable"></path><path d="M142.6,403.57s3.31,5.54,12.55,5.61c0,0-3,17.11-13.44,12S142.6,403.57,142.6,403.57Z" style="fill: rgb(219, 219, 219); transform-origin: 146.22px 412.851px;" id="elayazimsv0jl" class="animable"></path><path d="M139.77,398.16a18.74,18.74,0,0,0,7.15,8A14.69,14.69,0,0,0,157,407.6a14.32,14.32,0,0,0,8.88-4.93,20.85,20.85,0,0,0,4.09-10,16.37,16.37,0,0,1-2.41,11.27,14,14,0,0,1-4.39,4.23,17.73,17.73,0,0,1-5.7,2.09,18.66,18.66,0,0,1-6.06.07A14,14,0,0,1,145.8,408,15.36,15.36,0,0,1,139.77,398.16Z" style="fill: rgb(166, 166, 166); transform-origin: 154.961px 401.607px;" id="el1dlt24ny04g" class="animable"></path><path d="M144.26,416.8a16.47,16.47,0,0,1,1.48-4.69,16.29,16.29,0,0,1,2.69-4.13,16.12,16.12,0,0,1-1.48,4.7A16.33,16.33,0,0,1,144.26,416.8Z" style="fill: rgb(166, 166, 166); transform-origin: 146.345px 412.39px;" id="eli1qdvx05dm" class="animable"></path><path d="M199.22,423.87c-2.19,4.7-23.08,17.81-33.74,20.07s-35.06-1.23-39-4.64c-11.17-9.7-18.57-30.41-17.25-30.79s15.11-1.76,21.62-4.49c4.94-2.08,17.32-10.82,23.56-12.14s21.11,1.63,26.47,1.52c7.06-.15,20.22-4.48,21.58-4.67S205.49,410.46,199.22,423.87Z" style="fill: rgb(219, 219, 219); transform-origin: 156.405px 416.694px;" id="el2kto7edp6y" class="animable"></path><path d="M198.68,395.82c-7.72,1.05-13,1.7-20.69,2.66-7.21.9-14-.94-21.13-.48-6.81.44-12.31,4.59-18.24,7.5-7.42,3.62-15.37,5.62-23.17,8.2-.09,0-.07.17,0,.15A104.27,104.27,0,0,0,136,408.09c7.75-3.17,14.5-9,23.27-8.73,6.55.21,12.38,1.15,18.94.19,7.7-1.14,12.91-1.93,20.59-3.18C199.16,396.31,199,395.77,198.68,395.82Z" style="fill: rgb(235, 235, 235); transform-origin: 157.198px 404.834px;" id="elw3f57bu9qnr" class="animable"></path><path d="M189.73,423.37c-8.32,5.05-17.54,12.65-27.43,14-10.56,1.42-21.58-.77-31.78-3.35a.08.08,0,0,0-.05.16c9.55,3.62,20.92,5.56,31.11,4.12s20.18-8.82,28.28-14.71C190,423.48,189.84,423.3,189.73,423.37Z" style="fill: rgb(235, 235, 235); transform-origin: 160.163px 431.066px;" id="el7ygyi5y7cyy" class="animable"></path><path d="M192.54,407.71c-11.49.18-24.26-1.79-35.58.33-11,2.07-22,7.91-31.67,13.32-.07,0,0,.15,0,.11,10-4.85,20.74-10.82,31.76-12.79,11.37-2,23.93-.14,35.45-.69C192.93,408,192.93,407.71,192.54,407.71Z" style="fill: rgb(235, 235, 235); transform-origin: 159.043px 414.263px;" id="elqheziesyofh" class="animable"></path><path d="M192.29,414.44c-9.9,5.14-19.57,10.79-30.63,13.09-10.64,2.21-21.56,1.2-32.31.59a0,0,0,0,0,0,0c10.73,1.19,21.74,2,32.4-.18,10.92-2.26,21.18-7.58,30.66-13.3C192.55,414.58,192.44,414.36,192.29,414.44Z" style="fill: rgb(235, 235, 235); transform-origin: 160.912px 421.864px;" id="el6tzpiigl1q6" class="animable"></path><path d="M109.25,408.51a10.93,10.93,0,0,1-3.53-1.1,19.48,19.48,0,0,1-3.13-1.9,20.85,20.85,0,0,1-2.75-2.39c-.42-.44-.83-.9-1.21-1.37a16.61,16.61,0,0,1-1.06-1.53,17,17,0,0,1,1.64.86c.52.3,1,.62,1.53.95,1,.65,2,1.34,2.91,2s1.88,1.42,2.81,2.15S108.3,407.7,109.25,408.51Z" style="fill: rgb(219, 219, 219); transform-origin: 103.41px 404.365px;" id="eljgau96pz21j" class="animable"></path><path d="M128.77,440.54c-.72-.06-1.44-.15-2.16-.24l-1.08-.15-1.06-.23-2.13-.49c-.7-.21-1.39-.44-2.08-.66a43.79,43.79,0,0,1-8-3.59,50.55,50.55,0,0,1-7.19-4.93A40.05,40.05,0,0,1,99,424.1q3.45,2.63,7,5c2.36,1.6,4.78,3.09,7.23,4.49a82.94,82.94,0,0,0,7.58,3.85c.65.28,1.31.55,2,.85l2,.76,1,.4,1,.34C127.41,440.05,128.09,440.28,128.77,440.54Z" style="fill: rgb(219, 219, 219); transform-origin: 113.885px 432.32px;" id="elk71ozj6mxn" class="animable"></path><path d="M202.38,388.75c.54-1.13,1.06-2.18,1.62-3.24s1.1-2.08,1.69-3.1,1.18-2,1.84-3c.32-.5.65-1,1-1.49a15.43,15.43,0,0,1,1.14-1.45,13.9,13.9,0,0,1-.34,1.82c-.16.59-.34,1.17-.55,1.75a23,23,0,0,1-1.54,3.3,19.89,19.89,0,0,1-2.09,3A10.89,10.89,0,0,1,202.38,388.75Z" style="fill: rgb(219, 219, 219); transform-origin: 206.025px 382.61px;" id="eldl8tf7hdfmv" class="animable"></path><path d="M197.55,425.94c.52-.51,1-1,1.57-1.49l.8-.72.75-.77,1.51-1.51c.47-.53,1-1.05,1.44-1.57a78.64,78.64,0,0,0,5.36-6.59q2.52-3.42,4.79-7c1.5-2.43,2.93-4.9,4.32-7.43a39.09,39.09,0,0,1-3.1,8.11,51.58,51.58,0,0,1-4.56,7.43,44.4,44.4,0,0,1-5.82,6.51c-.54.48-1.08,1-1.63,1.44l-1.74,1.32-.88.64c-.31.19-.62.39-.93.57C198.81,425.22,198.18,425.59,197.55,425.94Z" style="fill: rgb(219, 219, 219); transform-origin: 207.82px 412.4px;" id="elmcw7mjujww" class="animable"></path><g id="elkh8mxjvchy"><circle cx="420.07" cy="294.33" r="42.78" style="fill: rgb(235, 235, 235); transform-origin: 420.07px 294.33px; transform: rotate(-19.8852deg);" class="animable" id="elk3i3ayj0ab"></circle></g><g id="eltejyhqhp0vj"><path d="M409.89,335.89A42.78,42.78,0,1,1,452.15,266a37.15,37.15,0,1,0,9.61,18.65,42.81,42.81,0,0,1-51.87,51.22Z" style="fill: rgb(219, 219, 219); opacity: 0.5; transform-origin: 420.095px 294.331px;" class="animable" id="el4kzxqfgfdsa"></path></g><path d="M431.34,286.5a9.08,9.08,0,1,1-17.63-4.32Z" style="fill: rgb(166, 166, 166); transform-origin: 422.36px 287.934px;" id="elnllya2a79s" class="animable"></path><path d="M428,291.55a9.09,9.09,0,0,1-13.74-3.37A10.86,10.86,0,0,1,428,291.55Z" style="fill: rgb(219, 219, 219); transform-origin: 421.13px 290.209px;" id="elwd1jhm8r7sm" class="animable"></path><path d="M394.62,279.91c1.45,4.89,6.29,8.48,6.29,8.48s5.78-1.75,8.79-5.87c2.51-3.43,2-7.69-.75-9.09-4-2-6.33,5.14-6.33,5.14s.19-7.51-4.24-7C395.29,272,393.41,275.83,394.62,279.91Z" style="fill: rgb(255, 255, 255); transform-origin: 402.787px 279.968px;" id="eljc6hkzlu6bi" class="animable"></path><path d="M449.32,293.32c-3.55,3.66-9.51,4.6-9.51,4.6s-4.31-4.22-5.07-9.26c-.64-4.2,1.75-7.76,4.86-7.71,4.46.06,3.24,7.48,3.24,7.48s3.31-6.75,7-4.22C452.39,286,452.27,290.26,449.32,293.32Z" style="fill: rgb(255, 255, 255); transform-origin: 443.143px 289.435px;" id="elud79phzeti" class="animable"></path><path d="M441,316.22c-2.86,2.22-20,3.71-27.3,1.72S392.36,306,391,302.67c-3.84-9.57-1.84-24.75-.91-24.57s9.93,3.71,14.83,4.09c3.73.28,14.18-1.2,18.47,0s12.56,7.72,15.93,9.35c4.42,2.16,14,3.65,14.86,4S449.15,309.9,441,316.22Z" style="fill: rgb(219, 219, 219); transform-origin: 421.499px 298.485px;" id="ela0lwxjmqiyr" class="animable"></path><path d="M449.58,298.66c-5.12-1.81-8.58-3.07-13.68-4.93-4.75-1.74-8.38-5-12.94-7-4.36-1.89-9.09-1.06-13.69-1.15-5.75-.11-11.32-1.4-17-2.27-.07,0-.1.08,0,.1a72.37,72.37,0,0,0,14.55,2.95c5.81.5,11.85-1,17.2,2,4,2.2,7.31,4.65,11.69,6.13,5.13,1.75,8.61,2.91,13.77,4.58C449.72,299.12,449.82,298.74,449.58,298.66Z" style="fill: rgb(235, 235, 235); transform-origin: 420.962px 291.192px;" id="ellf181rf1f0h" class="animable"></path><path d="M435.27,312.89c-6.76.48-14.89,2.27-21.44-.05-7-2.48-13.13-7.34-18.64-12.18a.06.06,0,0,0-.08.08c4.77,5.28,11.2,10.1,18,12.45s15.31.94,22.2-.14C435.38,313,435.36,312.89,435.27,312.89Z" style="fill: rgb(235, 235, 235); transform-origin: 415.228px 307.561px;" id="eli1bh79zfo8i" class="animable"></path><path d="M442,304.08c-7.18-3.55-14.47-8.83-22.16-11.1-7.46-2.22-16.17-2.11-23.87-1.81a0,0,0,0,0,0,.08c7.74.17,16.29-.12,23.75,2.17,7.7,2.35,14.88,7.51,22.2,10.83C442.15,304.36,442.23,304.2,442,304.08Z" style="fill: rgb(235, 235, 235); transform-origin: 419.054px 297.648px;" id="el0cooyaax1bl4" class="animable"></path><path d="M439.7,308.17c-7.77,0-15.56.47-23.15-1.62-7.3-2-13.75-6.11-20.22-9.91,0,0,0,0,0,0,6.27,4.15,12.84,8.17,20.15,10.19,7.49,2.07,15.54,2,23.23,1.5A.09.09,0,1,0,439.7,308.17Z" style="fill: rgb(235, 235, 235); transform-origin: 418.083px 302.632px;" id="eln87uvzbcq6l" class="animable"></path><path d="M390.1,278.1a7.87,7.87,0,0,1-1.84-1.8,14.77,14.77,0,0,1-1.33-2.18,15,15,0,0,1-.95-2.35c-.12-.41-.22-.82-.31-1.24a9,9,0,0,1-.17-1.28,11.8,11.8,0,0,1,.74,1.05c.23.36.44.72.65,1.08.41.72.79,1.45,1.16,2.18s.71,1.48,1.05,2.23S389.77,277.3,390.1,278.1Z" style="fill: rgb(219, 219, 219); transform-origin: 387.8px 273.675px;" id="elot16l8qt9p" class="animable"></path><path d="M392,304.16c-.43-.27-.85-.55-1.27-.84l-.62-.43-.59-.48-1.16-1c-.37-.35-.72-.72-1.08-1.07a31.54,31.54,0,0,1-3.8-4.75,36.26,36.26,0,0,1-2.88-5.35,27.64,27.64,0,0,1-1.85-5.76c.87,1.82,1.78,3.59,2.73,5.33s2,3.44,3.05,5.09a56.2,56.2,0,0,0,3.48,4.79c.31.38.63.76.94,1.15l1,1.11.49.56.53.53C391.34,303.42,391.68,303.78,392,304.16Z" style="fill: rgb(219, 219, 219); transform-origin: 385.375px 294.32px;" id="eld34fb61fxws" class="animable"></path><path d="M454.12,295.45c.69-.53,1.35-1,2-1.49s1.35-.94,2-1.39,1.38-.89,2.1-1.3c.36-.21.73-.42,1.11-.6a9.67,9.67,0,0,1,1.17-.54,10,10,0,0,1-.8,1c-.28.32-.58.62-.89.91a15.21,15.21,0,0,1-2,1.56,14.26,14.26,0,0,1-2.25,1.2A7.6,7.6,0,0,1,454.12,295.45Z" style="fill: rgb(219, 219, 219); transform-origin: 458.31px 292.79px;" id="elnvnug2q1tv" class="animable"></path><path d="M439.31,317c.48-.15,1-.29,1.45-.42l.72-.2.71-.24,1.41-.45,1.4-.52a55.33,55.33,0,0,0,5.42-2.38c1.76-.88,3.5-1.82,5.2-2.85s3.37-2.09,5-3.22a27.88,27.88,0,0,1-4.5,4,35.52,35.52,0,0,1-5.19,3.15,31.2,31.2,0,0,1-5.67,2.19l-1.48.38-1.49.26-.75.12-.76.06Z" style="fill: rgb(219, 219, 219); transform-origin: 449.965px 311.86px;" id="el1a9wfu3256x" class="animable"></path><g id="elf14ncarmzko"><circle cx="93.24" cy="179.57" r="42.36" style="fill: rgb(235, 235, 235); transform-origin: 93.24px 179.57px; transform: rotate(-73.35deg);" class="animable" id="eli1tvb6io9y"></circle></g><g id="elv8ri1pvfc6d"><path d="M99.91,221.41a42.36,42.36,0,1,1,11.72-80,36.83,36.83,0,1,0,15.93,13.33,42.37,42.37,0,0,1-27.65,66.67Z" style="fill: rgb(219, 219, 219); opacity: 0.5; transform-origin: 93.2457px 179.576px;" class="animable" id="elxhi0dirkg7"></path></g><path d="M77.84,173.55a6,6,0,1,1-6.83-5A6,6,0,0,1,77.84,173.55Z" style="fill: rgb(166, 166, 166); transform-origin: 71.9128px 174.482px;" id="el46igc9uxckn" class="animable"></path><path d="M117.79,167.17a6,6,0,1,1-6.83-4.95A6,6,0,0,1,117.79,167.17Z" style="fill: rgb(166, 166, 166); transform-origin: 111.871px 168.15px;" id="elppb3fvgihle" class="animable"></path><path d="M101.17,177.34c.91,5.72-2,10.93-6.43,11.65s-8.82-3.35-9.73-9.07,2-10.94,6.43-11.65S100.26,171.62,101.17,177.34Z" style="fill: rgb(166, 166, 166); transform-origin: 93.09px 178.631px;" id="elw4tgm7bhdo" class="animable"></path><path d="M63,167.3s3.4-6.88,12.36-4.31" style="fill: rgb(166, 166, 166); transform-origin: 69.18px 164.858px;" id="elspoeohl2an" class="animable"></path><path d="M118.13,158.51s-5.37-5.48-13.09-.25" style="fill: rgb(166, 166, 166); transform-origin: 111.585px 157.254px;" id="elmburrcq101j" class="animable"></path><path d="M121.92,189.65c-1.59,3.25-16.29,12.12-23.75,13.57s-24.41-1.3-27.1-3.72c-7.66-6.89-12.55-21.41-11.63-21.65S70,176.8,74.55,175c3.47-1.38,12.2-7.32,16.57-8.17s14.68,1.4,18.41,1.39c4.92,0,14.14-2.87,15.09-3S126.45,180.39,121.92,189.65Z" style="fill: rgb(219, 219, 219); transform-origin: 92.3572px 184.421px;" id="elt9vue85au2g" class="animable"></path><path d="M121.89,170.1c-5.39.64-9,1-14.45,1.6-5,.54-9.74-.83-14.71-.6-4.75.23-8.63,3.06-12.8,5-5.21,2.44-10.77,3.73-16.24,5.43-.06,0,0,.12,0,.11a72.73,72.73,0,0,0,14.37-3.76c5.43-2.11,10.21-6.1,16.31-5.8,4.56.23,8.61,1,13.2.37,5.37-.7,9-1.19,14.37-2C122.22,170.45,122.14,170.07,121.89,170.1Z" style="fill: rgb(235, 235, 235); transform-origin: 92.89px 175.869px;" id="elspek9biz8a" class="animable"></path><path d="M115.31,189.19c-5.86,3.41-12.37,8.59-19.27,9.39-7.38.85-15-.81-22.1-2.73-.07,0-.11.09,0,.11,6.61,2.64,14.51,4.14,21.62,3.26s14.17-5.9,19.88-9.9C115.48,189.27,115.39,189.14,115.31,189.19Z" style="fill: rgb(235, 235, 235); transform-origin: 94.6607px 194.326px;" id="el8cq8ex6pq5f" class="animable"></path><path d="M117.46,178.31c-8,0-16.87-1.55-24.78-.2-7.67,1.3-15.44,5.23-22.23,8.88a0,0,0,0,0,0,.08c7-3.26,14.57-7.28,22.27-8.52,7.95-1.27,16.67.2,24.71,0C117.73,178.5,117.73,178.31,117.46,178.31Z" style="fill: rgb(235, 235, 235); transform-origin: 94.0544px 182.314px;" id="elzmzbkt00guk" class="animable"></path><path d="M117.21,183c-7,3.47-13.77,7.28-21.5,8.75-7.44,1.41-15,.57-22.51,0,0,0,0,0,0,0,7.46,1,15.13,1.68,22.58.27,7.64-1.44,14.85-5,21.52-8.88C117.39,183.1,117.31,182.94,117.21,183Z" style="fill: rgb(235, 235, 235); transform-origin: 95.2696px 187.905px;" id="elj3en94hd169" class="animable"></path><path d="M59.44,177.85A7.79,7.79,0,0,1,57,177a13.69,13.69,0,0,1-2.15-1.36A14.52,14.52,0,0,1,53,174c-.29-.31-.57-.63-.83-1a10.06,10.06,0,0,1-.71-1.08c.4.19.76.41,1.12.62s.71.45,1.06.68c.69.47,1.35,1,2,1.46s1.3,1,1.93,1.53S58.79,177.27,59.44,177.85Z" style="fill: rgb(219, 219, 219); transform-origin: 55.45px 174.885px;" id="el4cwu8oxevzn" class="animable"></path><path d="M72.64,200.39c-.5,0-1-.12-1.5-.19l-.75-.12-.74-.17-1.48-.37-1.44-.48a31.06,31.06,0,0,1-5.5-2.6,36.57,36.57,0,0,1-4.94-3.52,28,28,0,0,1-4.2-4.37c1.59,1.25,3.18,2.45,4.8,3.59s3.29,2.21,5,3.22a54.42,54.42,0,0,0,5.23,2.77l1.35.62,1.38.56.69.29.71.24C71.7,200,72.17,200.2,72.64,200.39Z" style="fill: rgb(219, 219, 219); transform-origin: 62.365px 194.48px;" id="elxabzq994o2j" class="animable"></path><path d="M124.55,165.22c.39-.77.77-1.5,1.17-2.23s.8-1.44,1.22-2.14.85-1.41,1.31-2.1c.24-.34.47-.69.73-1a10.74,10.74,0,0,1,.81-1,10.58,10.58,0,0,1-.26,1.27c-.12.41-.25.81-.4,1.21a16.6,16.6,0,0,1-1.12,2.28,13.55,13.55,0,0,1-1.49,2.07A7.7,7.7,0,0,1,124.55,165.22Z" style="fill: rgb(219, 219, 219); transform-origin: 127.17px 160.985px;" id="el9xj6yh2y49" class="animable"></path><path d="M120.73,191.07c.37-.35.74-.69,1.12-1,.18-.17.37-.33.56-.49l.53-.53,1.07-1,1-1.08a56.88,56.88,0,0,0,3.81-4.52c1.2-1.57,2.34-3.18,3.42-4.85s2.1-3.37,3.11-5.12a27.82,27.82,0,0,1-2.27,5.61,36,36,0,0,1-3.26,5.12,30.66,30.66,0,0,1-4.14,4.46c-.38.33-.76.67-1.15,1l-1.23.9-.62.43-.66.39C121.61,190.58,121.18,190.83,120.73,191.07Z" style="fill: rgb(219, 219, 219); transform-origin: 128.04px 181.775px;" id="el5m3einezwen" class="animable"></path><polygon points="266.44 27.05 262.51 82.8 258.47 138.54 250.37 250.03 249.63 250.03 241.53 138.54 237.49 82.8 233.56 27.05 237.85 82.77 242.03 138.5 250.37 249.97 249.63 249.97 257.97 138.5 262.15 82.77 266.44 27.05" style="fill: rgb(219, 219, 219); transform-origin: 250px 138.54px;" id="el4oz5g47y34p" class="animable"></polygon><polygon points="103.97 80.72 140.62 122.92 177.18 165.2 250.28 249.76 249.75 250.28 165.2 177.18 122.92 140.62 80.72 103.97 123.16 140.34 165.52 176.8 250.24 249.72 249.72 250.24 176.8 165.52 140.34 123.16 103.97 80.72" style="fill: rgb(219, 219, 219); transform-origin: 165.5px 165.5px;" id="elt1gf4nen0rh" class="animable"></polygon><polygon points="27.05 233.56 82.8 237.49 138.54 241.53 250.03 249.63 250.03 250.37 138.54 258.47 82.8 262.51 27.05 266.44 82.77 262.15 138.5 257.97 249.97 249.63 249.97 250.37 138.5 242.03 82.77 237.85 27.05 233.56" style="fill: rgb(219, 219, 219); transform-origin: 138.54px 250px;" id="el1retv9t185c" class="animable"></polygon><polygon points="80.72 396.03 122.92 359.38 165.2 322.82 249.75 249.72 250.28 250.24 177.18 334.8 140.62 377.08 103.97 419.28 140.34 376.84 176.8 334.48 249.72 249.76 250.24 250.28 165.52 323.2 123.16 359.66 80.72 396.03" style="fill: rgb(219, 219, 219); transform-origin: 165.5px 334.5px;" id="el0ko2d6xp3rkn" class="animable"></polygon><polygon points="233.56 472.95 237.49 417.2 241.53 361.46 249.63 249.97 250.37 249.97 258.47 361.46 262.51 417.2 266.44 472.95 262.15 417.23 257.97 361.5 249.63 250.03 250.37 250.03 242.03 361.5 237.85 417.23 233.56 472.95" style="fill: rgb(219, 219, 219); transform-origin: 250px 361.46px;" id="el6ruw3jtezok" class="animable"></polygon><polygon points="396.03 419.28 359.38 377.08 322.82 334.8 249.72 250.24 250.25 249.72 334.8 322.82 377.08 359.38 419.28 396.03 376.84 359.66 334.48 323.2 249.76 250.28 250.28 249.76 323.2 334.48 359.66 376.84 396.03 419.28" style="fill: rgb(219, 219, 219); transform-origin: 334.5px 334.5px;" id="el47z8zgvc1xj" class="animable"></polygon><polygon points="472.95 266.44 417.2 262.51 361.46 258.47 249.97 250.37 249.97 249.63 361.46 241.53 417.2 237.49 472.95 233.56 417.23 237.85 361.5 242.03 250.03 250.37 250.03 249.63 361.5 257.97 417.23 262.15 472.95 266.44" style="fill: rgb(219, 219, 219); transform-origin: 361.46px 250px;" id="elnftyk5yzfw" class="animable"></polygon><polygon points="419.28 103.97 377.08 140.62 334.8 177.18 250.25 250.28 249.72 249.76 322.82 165.2 359.38 122.92 396.03 80.72 359.66 123.16 323.2 165.52 250.28 250.24 249.76 249.72 334.48 176.8 376.84 140.34 419.28 103.97" style="fill: rgb(219, 219, 219); transform-origin: 334.5px 165.5px;" id="elzmgt2mhwbhj" class="animable"></polygon><polygon points="187.45 60.67 203.26 107.95 218.96 155.26 250.35 249.88 249.67 250.17 204.96 161.06 182.6 116.5 160.35 71.89 182.93 116.34 205.4 160.84 250.33 249.83 249.65 250.12 218.49 155.41 202.91 108.06 187.45 60.67" style="fill: rgb(219, 219, 219); transform-origin: 205.35px 155.42px;" id="elbuc477zzo6" class="animable"></polygon><polygon points="71.89 160.35 116.5 182.6 161.06 204.96 250.17 249.67 249.88 250.35 155.26 218.96 107.95 203.26 60.67 187.45 108.06 202.91 155.41 218.49 250.12 249.65 249.83 250.33 160.84 205.4 116.34 182.93 71.89 160.35" style="fill: rgb(219, 219, 219); transform-origin: 155.42px 205.35px;" id="el3d0t918z8xt" class="animable"></polygon><polygon points="60.67 312.55 107.95 296.74 155.26 281.04 249.88 249.65 250.17 250.33 161.06 295.05 116.5 317.4 71.89 339.64 116.34 317.07 160.84 294.6 249.83 249.67 250.12 250.35 155.41 281.51 108.06 297.09 60.67 312.55" style="fill: rgb(219, 219, 219); transform-origin: 155.42px 294.645px;" id="elskegy8yiwf" class="animable"></polygon><polygon points="160.35 428.11 182.6 383.5 204.96 338.94 249.67 249.83 250.35 250.12 218.96 344.74 203.26 392.05 187.45 439.33 202.91 391.94 218.49 344.59 249.65 249.88 250.33 250.17 205.4 339.16 182.93 383.66 160.35 428.11" style="fill: rgb(219, 219, 219); transform-origin: 205.35px 344.58px;" id="ela38pok9rvz7" class="animable"></polygon><polygon points="312.55 439.33 296.74 392.05 281.04 344.74 249.65 250.12 250.33 249.83 295.05 338.94 317.4 383.5 339.64 428.11 317.07 383.66 294.6 339.17 249.67 250.17 250.35 249.88 281.51 344.59 297.09 391.94 312.55 439.33" style="fill: rgb(219, 219, 219); transform-origin: 294.645px 344.58px;" id="elc13483d7qog" class="animable"></polygon><polygon points="428.11 339.64 383.5 317.4 338.94 295.04 249.83 250.33 250.12 249.65 344.74 281.04 392.05 296.74 439.33 312.55 391.94 297.09 344.59 281.51 249.88 250.35 250.17 249.67 339.16 294.6 383.66 317.07 428.11 339.64" style="fill: rgb(219, 219, 219); transform-origin: 344.58px 294.645px;" id="el82wf91yzja2" class="animable"></polygon><polygon points="439.33 187.45 392.05 203.26 344.74 218.96 250.12 250.35 249.83 249.67 338.94 204.96 383.5 182.6 428.11 160.35 383.66 182.93 339.17 205.4 250.17 250.33 249.88 249.65 344.59 218.49 391.94 202.91 439.33 187.45" style="fill: rgb(219, 219, 219); transform-origin: 344.58px 205.35px;" id="elkj63gpcr9ee" class="animable"></polygon><polygon points="339.64 71.89 317.4 116.5 295.04 161.06 250.33 250.17 249.65 249.88 281.04 155.26 296.74 107.95 312.55 60.67 297.09 108.06 281.51 155.41 250.35 250.12 249.67 249.83 294.6 160.84 317.07 116.34 339.64 71.89" style="fill: rgb(219, 219, 219); transform-origin: 294.645px 155.42px;" id="el1z2z16ewx0e" class="animable"></polygon></g><g id="freepik--Balls--inject-15" class="animable" style="transform-origin: 255.761px 255.192px;"><g id="elo22llsmdx4"><circle cx="322.35" cy="407.05" r="19.99" style="fill: #0F0077; transform-origin: 322.35px 407.05px; transform: rotate(-31.13deg);" class="animable" id="elbel97yor0cs"></circle></g><g id="elndudckqutll"><path d="M322.16,427a20,20,0,1,1,11.75-36.3,17.4,17.4,0,1,0,6.36,7.45A20,20,0,0,1,322.16,427Z" style="opacity: 0.1; transform-origin: 322.328px 407.001px;" class="animable" id="elt85iumhm96q"></path></g><g id="el59zmjmifl6n"><circle cx="71.82" cy="274.99" r="12.55" style="fill: #0F0077; transform-origin: 71.82px 274.99px; transform: rotate(-18.67deg);" class="animable" id="el1xyldmymn7n"></circle></g><g id="elvfsquqzvnf7"><path d="M71.7,287.54a12.56,12.56,0,1,1,7.38-22.79,10.89,10.89,0,1,0,4,4.67A12.56,12.56,0,0,1,71.7,287.54Z" style="opacity: 0.1; transform-origin: 71.8057px 274.98px;" class="animable" id="elqfmsivpb21"></path></g><g id="elmttl5disj1"><circle cx="267.89" cy="89.02" r="12.55" style="fill: #0F0077; transform-origin: 267.89px 89.02px; transform: rotate(-2.72deg);" class="animable" id="el42wm2j3gi6g"></circle></g><g id="elislpejaj898"><path d="M267.77,101.58a12.56,12.56,0,1,1,7.37-22.8A10.92,10.92,0,1,0,280.09,88a10.71,10.71,0,0,0-.95-4.56,12.56,12.56,0,0,1-11.37,18.12Z" style="opacity: 0.1; transform-origin: 267.873px 89.0202px;" class="animable" id="el5ndzlz5b933"></path></g><g id="eldqkulfi5crp"><circle cx="418.05" cy="188.99" r="27.71" style="fill: #0F0077; transform-origin: 418.05px 188.99px; transform: rotate(-61.58deg);" class="animable" id="el5q3eh6m3xnf"></circle></g><g id="elg0rn70ygg26"><path d="M417.79,216.7a27.71,27.71,0,1,1,16.28-50.32,24,24,0,1,0,8.83,10.33,27.72,27.72,0,0,1-25.11,40Z" style="opacity: 0.1; transform-origin: 418.056px 188.996px;" class="animable" id="eldlfkaisxlsq"></path></g></g><g id="freepik--Emoji--inject-15" class="animable" style="transform-origin: 250px 249.997px;"><path d="M114.77,241.19a134.36,134.36,0,0,0,19.68,70.09.6.6,0,0,0,.06.11c1,1.68,2.07,3.33,3.18,4.95l.79,1.17c.14.22.29.42.44.64.92,1.32,1.85,2.63,2.83,3.91,1.38,1.86,2.82,3.66,4.3,5.44l.4.48c.46.57.92,1.14,1.4,1.69h0a133.49,133.49,0,0,0,13.8,13.73C216.41,392,304.77,385.53,352,329.68h0a136.4,136.4,0,0,0,14.37-20h0a134.34,134.34,0,0,0,15.9-41.18h0c17.56-82-46.19-163-132.46-162.58C174.65,105.53,114.09,168.6,114.77,241.19Z" style="fill: #0F0077; transform-origin: 249.979px 240.996px;" id="el9jsk74hy4bl" class="animable"></path><g id="elkd7hof1uay"><path d="M114.8,241.1A135.14,135.14,0,1,0,360.91,164a117.34,117.34,0,1,1-50-43.5A135.18,135.18,0,0,0,114.8,241.1Z" style="opacity: 0.1; transform-origin: 249.94px 241.128px;" class="animable" id="elhjks8hmo22v"></path></g><g id="el56ffauqdn2b"><path d="M168.4,178.6c.89,3.3,8.26,4.19,16.47,2s14.15-6.66,13.26-10-8.26-4.18-16.47-2S167.52,175.31,168.4,178.6Z" style="opacity: 0.3; transform-origin: 183.266px 174.597px;" class="animable" id="elgkddtdmumt"></path></g><g id="elgvpp9sp4t46"><path d="M331.6,178.6c-.89,3.3-8.26,4.19-16.47,2s-14.15-6.66-13.26-10,8.26-4.18,16.47-2S332.48,175.31,331.6,178.6Z" style="opacity: 0.3; transform-origin: 316.734px 174.597px;" class="animable" id="elup9w7qtjt7"></path></g><path d="M166.39,214.94a20.63,20.63,0,0,1,4.2-15.44,19.36,19.36,0,0,1,6.56-5.56,18.36,18.36,0,0,1,17.09.2,19.34,19.34,0,0,1,6.43,5.74,20.53,20.53,0,0,1,3.78,15.55,27.25,27.25,0,0,0-6.78-13.07,16.44,16.44,0,0,0-24.15-.31A27.26,27.26,0,0,0,166.39,214.94Z" style="fill: rgb(38, 50, 56); transform-origin: 185.464px 203.679px;" id="eln0c1sskb3p" class="animable"></path><path d="M295.47,214.94a20.63,20.63,0,0,1,4.19-15.44,19.41,19.41,0,0,1,6.57-5.56,18.36,18.36,0,0,1,17.09.2,19.34,19.34,0,0,1,6.43,5.74,20.53,20.53,0,0,1,3.77,15.55,27.17,27.17,0,0,0-6.78-13.07,16.44,16.44,0,0,0-24.15-.31A27.16,27.16,0,0,0,295.47,214.94Z" style="fill: rgb(38, 50, 56); transform-origin: 314.539px 203.679px;" id="elos0i5zjv11h" class="animable"></path><path d="M221.33,208.53c1.94,6.79,5.41,13,10.38,17.22s11.47,6,18.06,6a26.67,26.67,0,0,0,18-6c5-4.25,8.62-10.34,10.93-17a30.55,30.55,0,0,1-8.25,19.86,26.27,26.27,0,0,1-9.5,6.27,32.9,32.9,0,0,1-11.19,1.9,34.71,34.71,0,0,1-11.13-1.94,25.89,25.89,0,0,1-9.55-6.21A28.65,28.65,0,0,1,221.33,208.53Z" style="fill: rgb(38, 50, 56); transform-origin: 250.013px 222.655px;" id="el8gpon8l6i2r" class="animable"></path><path d="M332.74,292.37c-7,9.23-58.48,28.12-82.74,28.12-24.52,0-75.78-18.89-82.74-28.12-19.83-26.29-26.36-74.79-23.32-75s33.7,3.14,49.14.2C204.81,215.34,235.8,202,250,202s45.19,13.31,56.92,15.54c15.44,2.94,46.1-.41,49.14-.2S352.57,266.08,332.74,292.37Z" style="fill: rgb(235, 235, 235); transform-origin: 250px 261.245px;" id="elfzml0bosc6s" class="animable"></path><path d="M344.52,231.05c-17.29-1.28-29-2.29-46.29-3.77-16.11-1.38-30.06-8.53-45.77-10.81-15-2.19-28.92,4.32-43.19,7.89-17.82,4.46-36.06,5.14-54.23,7.16a.17.17,0,0,0,0,.34c15.72.42,31.83-.23,47.33-3.05,18.33-3.33,35.74-12.91,54.7-8.26,14.16,3.47,26.43,8.23,41.16,9.16,17.29,1.09,29,1.76,46.29,2.6C345.33,232.35,345.32,231.11,344.52,231.05Z" style="fill: rgb(255, 255, 255); transform-origin: 249.997px 224.17px;" id="elhlhwn0cg8ok" class="animable"></path><path d="M312.3,286.9c-20.46,7.14-44.05,19.44-66.19,17.75-23.64-1.81-46.61-11.67-67.63-22a.19.19,0,0,0-.18.33c19.12,12.28,43,21.77,65.82,23.35s48-9.88,68.37-19C312.76,287.25,312.57,286.81,312.3,286.9Z" style="fill: rgb(255, 255, 255); transform-origin: 245.423px 294.558px;" id="el8pjrk8lpu22" class="animable"></path><path d="M325.65,254.11c-25.1-4.93-52-15.12-77.62-15.72-24.85-.58-51.6,7-75.12,14.37a.14.14,0,0,0,.08.26c24-6,50.14-14,75-13.17,25.7.82,52.17,10.74,77.51,14.87C326.37,254.86,326.5,254.27,325.65,254.11Z" style="fill: rgb(255, 255, 255); transform-origin: 249.533px 246.55px;" id="el4mj5welszi8" class="animable"></path><path d="M322,268.63c-23.93,6.63-47.59,14.45-72.73,14.35-24.2-.09-47.5-7.34-70.62-13.64,0,0-.06.05,0,.06C201.43,277,225,283.87,249.26,284c24.82.13,49.62-6.71,72.89-14.79A.29.29,0,0,0,322,268.63Z" style="fill: rgb(255, 255, 255); transform-origin: 250.498px 276.311px;" id="elhmbwal4mbxr" class="animable"></path><path d="M143.94,217.37a24.73,24.73,0,0,1-7.18-4,44.23,44.23,0,0,1-5.94-5.58,48.83,48.83,0,0,1-4.88-6.48c-.72-1.15-1.38-2.33-2-3.55a33.91,33.91,0,0,1-1.59-3.81,35.81,35.81,0,0,1,3.16,2.63c1,.9,2,1.84,2.9,2.78,1.88,1.87,3.65,3.82,5.41,5.77s3.43,4,5.12,6S142.25,215.17,143.94,217.37Z" style="fill: rgb(235, 235, 235); transform-origin: 133.145px 205.66px;" id="elcqaep6zfoz" class="animable"></path><path d="M171.64,296.11c-1.54-.47-3.06-1-4.59-1.52-.77-.26-1.53-.54-2.29-.82l-2.21-1-4.4-2.06c-1.42-.77-2.82-1.6-4.23-2.39a98.11,98.11,0,0,1-15.67-11.49,114.52,114.52,0,0,1-13.36-14.06,88,88,0,0,1-10.51-16.23q6.3,7.32,12.85,14.17c4.4,4.57,9,8.93,13.67,13.13a178.44,178.44,0,0,0,14.72,11.87c1.29.92,2.59,1.81,3.87,2.76l4,2.58,2,1.33,2.07,1.2C168.9,294.41,170.27,295.23,171.64,296.11Z" style="fill: rgb(235, 235, 235); transform-origin: 143.01px 271.325px;" id="elilzf28nmdn" class="animable"></path><path d="M355.84,217.37c1.69-2.2,3.32-4.27,5-6.3s3.38-4,5.12-6,3.53-3.9,5.41-5.77c.94-.94,1.88-1.88,2.9-2.78a35.65,35.65,0,0,1,3.15-2.63,32.14,32.14,0,0,1-1.59,3.81c-.62,1.22-1.28,2.4-2,3.55a49.71,49.71,0,0,1-4.88,6.48,44.23,44.23,0,0,1-5.94,5.58A24.86,24.86,0,0,1,355.84,217.37Z" style="fill: rgb(235, 235, 235); transform-origin: 366.63px 205.63px;" id="elasvkcgv13v6" class="animable"></path><path d="M328.14,296.11c1.37-.88,2.74-1.7,4.11-2.52l2.07-1.2,2-1.33,4-2.58c1.28-1,2.58-1.84,3.87-2.76a180.13,180.13,0,0,0,14.72-11.87c4.7-4.2,9.27-8.56,13.67-13.13s8.64-9.29,12.85-14.17a88,88,0,0,1-10.51,16.23,114.52,114.52,0,0,1-13.36,14.06,98.56,98.56,0,0,1-15.67,11.49c-1.41.79-2.81,1.62-4.23,2.39l-4.4,2.06-2.21,1c-.77.28-1.52.56-2.29.82C331.2,295.12,329.68,295.64,328.14,296.11Z" style="fill: rgb(235, 235, 235); transform-origin: 356.785px 271.33px;" id="elzdx9yyw3p2r" class="animable"></path><path d="M386.73,260.41c9.19,12.12,28.74,25.47,32.35,36.18a13,13,0,0,1-4.25,14.87s12.09,3.18,13.77,13.44c.86,5.28-6.82,11.29-6.82,11.29s9.59,3,10.51,12.18c.74,7.35-7.07,12.27-7.07,12.27s7.87,7.14,6.22,14.86c-3.34,15.65-65.34,28.58-79.68,7.74-6.68-9.72,8.63-12.05,8.63-12.05s-22.83-2-25.83-14.68S351.66,342,351.66,342s-22.12-2.1-23.89-15.59c-1.84-14.05,18.56-12.44,18.56-12.44s-15.74-6.48-14.73-17.12c1.67-17.57,32.1-2.26,45-8.33l2.84-24Z" style="fill: #0F0077; transform-origin: 379.996px 327.243px;" id="el61khjssxcwq" class="animable"></path><path d="M403.23,277.35c-7.69-12.23,5.31-32-.37-44.78-7.68-17.25-24.32,4.7-23.37,31.89l4.44,21Z" style="fill: #0F0077; transform-origin: 391.898px 255.955px;" id="elnyy3aga222" class="animable"></path><path d="M424.1,361.6a.17.17,0,0,1,.13.31c-19.35,9.22-43.45,13.42-64.66,9.5-.7-.12-.79-1.31,0-1.32C382.21,370,402.28,368,424.1,361.6Z" style="fill: rgb(38, 50, 56); transform-origin: 391.661px 367.236px;" id="ellfhhkrzchw" class="animable"></path><path d="M422.11,336.26c.24-.07.36.32.12.43-20,9.39-47.27,13.38-71.19,6-.82-.25-1.3-1.3-.34-1.08C367,345.3,402.5,342.12,422.11,336.26Z" style="fill: rgb(38, 50, 56); transform-origin: 386.265px 341.385px;" id="el10yc1l93lt6" class="animable"></path><path d="M344.75,312.85c23.21,6.2,46.07,4.33,69.28-1,.3-.07.37.36.13.49-10.65,5.68-25.79,7.51-37.69,7.94-11.4.41-21.77-1.51-31.93-6.66C344.14,313.46,344.26,312.72,344.75,312.85Z" style="fill: rgb(38, 50, 56); transform-origin: 379.302px 316.088px;" id="ellvykdxyu88i" class="animable"></path><path d="M113.27,260.41c-9.19,12.12-28.74,25.47-32.35,36.18a13,13,0,0,0,4.25,14.87s-12.1,3.18-13.77,13.44c-.86,5.28,6.82,11.29,6.82,11.29s-9.59,3-10.51,12.18c-.74,7.35,7.07,12.27,7.07,12.27s-7.87,7.14-6.22,14.86c3.34,15.65,65.34,28.58,79.68,7.74,6.68-9.72-8.63-12.05-8.63-12.05s22.83-2,25.83-14.68S148.34,342,148.34,342s22.12-2.1,23.89-15.59c1.84-14.05-18.56-12.44-18.56-12.44s15.74-6.48,14.73-17.12c-1.67-17.57-32.1-2.26-45.05-8.33l-2.84-24Z" style="fill: #0F0077; transform-origin: 120.004px 327.243px;" id="el9qvzvgwaaub" class="animable"></path><path d="M96.77,277.35c7.69-12.23-5.31-32,.37-44.78,7.68-17.25,24.32,4.7,23.37,31.89l-4.44,21Z" style="fill: #0F0077; transform-origin: 108.102px 255.955px;" id="el9pw2607136l" class="animable"></path><path d="M75.9,361.6a.17.17,0,0,0-.13.31c19.35,9.22,43.45,13.42,64.66,9.5.7-.12.79-1.31,0-1.32C117.79,370,97.72,368,75.9,361.6Z" style="fill: rgb(38, 50, 56); transform-origin: 108.339px 367.236px;" id="elcpa9aojiy1o" class="animable"></path><path d="M77.89,336.26c-.24-.07-.36.32-.12.43,20,9.39,47.27,13.38,71.19,6,.82-.25,1.3-1.3.34-1.08C133,345.3,97.51,342.12,77.89,336.26Z" style="fill: rgb(38, 50, 56); transform-origin: 113.735px 341.385px;" id="elqujecd956m" class="animable"></path><path d="M155.25,312.85c-23.21,6.2-46.07,4.33-69.28-1-.3-.07-.37.36-.13.49,10.65,5.68,25.79,7.51,37.69,7.94,11.4.41,21.77-1.51,31.93-6.66C155.86,313.46,155.74,312.72,155.25,312.85Z" style="fill: rgb(38, 50, 56); transform-origin: 120.698px 316.088px;" id="elggf32i6iopw" class="animable"></path></g><g id="freepik--Sparkles--inject-15" class="animable" style="transform-origin: 247.895px 261.26px;"><polygon points="369.95 247.09 376.58 245.86 378.06 238.87 379.54 245.86 386.17 247.09 379.57 248.7 378.06 255.31 376.55 248.7 369.95 247.09" style="fill: #0F0077; transform-origin: 378.06px 247.09px;" id="elkw8b14ysx7d" class="animable"></polygon><polygon points="67.66 352.28 74.29 351.05 75.77 344.06 77.25 351.05 83.88 352.28 77.28 353.9 75.77 360.5 74.26 353.9 67.66 352.28" style="fill: #0F0077; transform-origin: 75.77px 352.28px;" id="el2tla3970vh2" class="animable"></polygon><polygon points="411.91 378.86 418.54 377.64 420.02 370.65 421.5 377.64 428.13 378.87 421.53 380.48 420.02 387.08 418.51 380.48 411.91 378.86" style="fill: #0F0077; transform-origin: 420.02px 378.865px;" id="el9d0ozd101c4" class="animable"></polygon><polygon points="314.24 352.28 320.87 351.05 322.35 344.07 323.83 351.05 330.46 352.28 323.86 353.9 322.35 360.5 320.84 353.9 314.24 352.28" style="fill: #0F0077; transform-origin: 322.35px 352.285px;" id="elp5dklddhiu" class="animable"></polygon><polygon points="133.97 255.38 140.6 254.15 142.09 247.16 143.57 254.15 150.2 255.38 143.6 256.99 142.09 263.59 140.58 256.99 133.97 255.38" style="fill: #0F0077; transform-origin: 142.085px 255.375px;" id="eljcb1b0vziok" class="animable"></polygon><polygon points="156.09 308.51 159.79 307.83 160.62 303.92 161.45 307.83 165.16 308.52 161.47 309.42 160.62 313.11 159.78 309.42 156.09 308.51" style="fill: #0F0077; transform-origin: 160.625px 308.515px;" id="ellt0vf10zzyk" class="animable"></polygon><polygon points="120.55 391.85 124.26 391.16 125.09 387.25 125.91 391.16 129.62 391.85 125.93 392.75 125.09 396.44 124.24 392.75 120.55 391.85" style="fill: #0F0077; transform-origin: 125.085px 391.845px;" id="elobxsqfqv9bd" class="animable"></polygon><polygon points="167.1 130.67 170.81 129.99 171.64 126.08 172.47 129.99 176.17 130.67 172.48 131.57 171.64 135.26 170.79 131.57 167.1 130.67" style="fill: #0F0077; transform-origin: 171.635px 130.67px;" id="elaxuazijbdy6" class="animable"></polygon><path d="M295.87,335.09a1.08,1.08,0,0,0,0-2.15A1.08,1.08,0,0,0,295.87,335.09Z" style="fill: #0F0077; transform-origin: 295.87px 334.015px;" id="ell2sc15ns8dr" class="animable"></path><path d="M382.5,292.57a1.08,1.08,0,0,0,0-2.15A1.08,1.08,0,0,0,382.5,292.57Z" style="fill: #0F0077; transform-origin: 382.5px 291.495px;" id="elg24a6ot8mqe" class="animable"></path><path d="M165.16,155.37a1.08,1.08,0,0,0,0-2.15A1.08,1.08,0,0,0,165.16,155.37Z" style="fill: #0F0077; transform-origin: 165.16px 154.295px;" id="ellw0ek03oy" class="animable"></path><path d="M393,234.07a1.07,1.07,0,0,0,0-2.14A1.07,1.07,0,0,0,393,234.07Z" style="fill: #0F0077; transform-origin: 393px 233px;" id="elej48yul9u1" class="animable"></path><path d="M394,360.44a1.08,1.08,0,0,0,0-2.15A1.08,1.08,0,0,0,394,360.44Z" style="fill: #0F0077; transform-origin: 394px 359.365px;" id="elnehpyrgfzn" class="animable"></path><path d="M350.11,189.75a.76.76,0,0,0,0-1.52A.76.76,0,0,0,350.11,189.75Z" style="fill: #0F0077; transform-origin: 350.11px 188.99px;" id="el6hf8dyxb31m" class="animable"></path><path d="M178.2,314.66a.76.76,0,0,0,0-1.52A.76.76,0,0,0,178.2,314.66Z" style="fill: #0F0077; transform-origin: 178.2px 313.9px;" id="elot0rsr0voh" class="animable"></path><path d="M362.66,176.5c2.65,0,2.65-4.12,0-4.12S360,176.5,362.66,176.5Z" style="fill: #0F0077; transform-origin: 362.658px 174.44px;" id="el4lru9izgskv" class="animable"></path><g id="ellz8i6kaepnn"><g style="opacity: 0.8; transform-origin: 247.895px 261.26px;" class="animable" id="el38g5brls5xd"><polygon points="369.95 247.09 376.58 245.86 378.06 238.87 379.54 245.86 386.17 247.09 379.57 248.7 378.06 255.31 376.55 248.7 369.95 247.09" style="fill: rgb(255, 255, 255); transform-origin: 378.06px 247.09px;" id="eltxcxhkcj4xr" class="animable"></polygon><polygon points="67.66 352.28 74.29 351.05 75.77 344.06 77.25 351.05 83.88 352.28 77.28 353.9 75.77 360.5 74.26 353.9 67.66 352.28" style="fill: rgb(255, 255, 255); transform-origin: 75.77px 352.28px;" id="el7lyajjy82va" class="animable"></polygon><polygon points="411.91 378.86 418.54 377.64 420.02 370.65 421.5 377.64 428.13 378.87 421.53 380.48 420.02 387.08 418.51 380.48 411.91 378.86" style="fill: rgb(255, 255, 255); transform-origin: 420.02px 378.865px;" id="elx7lf1om8gu" class="animable"></polygon><polygon points="314.24 352.28 320.87 351.05 322.35 344.07 323.83 351.05 330.46 352.28 323.86 353.9 322.35 360.5 320.84 353.9 314.24 352.28" style="fill: rgb(255, 255, 255); transform-origin: 322.35px 352.285px;" id="el3a001lpeja9" class="animable"></polygon><polygon points="133.97 255.38 140.6 254.15 142.09 247.16 143.57 254.15 150.2 255.38 143.6 256.99 142.09 263.59 140.58 256.99 133.97 255.38" style="fill: rgb(255, 255, 255); transform-origin: 142.085px 255.375px;" id="elcvapqocxgpb" class="animable"></polygon><polygon points="156.09 308.51 159.79 307.83 160.62 303.92 161.45 307.83 165.16 308.52 161.47 309.42 160.62 313.11 159.78 309.42 156.09 308.51" style="fill: rgb(255, 255, 255); transform-origin: 160.625px 308.515px;" id="el6kdke8tofbb" class="animable"></polygon><polygon points="120.55 391.85 124.26 391.16 125.09 387.25 125.91 391.16 129.62 391.85 125.93 392.75 125.09 396.44 124.24 392.75 120.55 391.85" style="fill: rgb(255, 255, 255); transform-origin: 125.085px 391.845px;" id="elri9gfrdegaf" class="animable"></polygon><polygon points="167.1 130.67 170.81 129.99 171.64 126.08 172.47 129.99 176.17 130.67 172.48 131.57 171.64 135.26 170.79 131.57 167.1 130.67" style="fill: rgb(255, 255, 255); transform-origin: 171.635px 130.67px;" id="elxvefuu7v45" class="animable"></polygon><path d="M295.87,335.09a1.08,1.08,0,0,0,0-2.15A1.08,1.08,0,0,0,295.87,335.09Z" style="fill: rgb(255, 255, 255); transform-origin: 295.87px 334.015px;" id="el2m2fbsahpaq" class="animable"></path><path d="M382.5,292.57a1.08,1.08,0,0,0,0-2.15A1.08,1.08,0,0,0,382.5,292.57Z" style="fill: rgb(255, 255, 255); transform-origin: 382.5px 291.495px;" id="el1fhuurs7cyw" class="animable"></path><path d="M165.16,155.37a1.08,1.08,0,0,0,0-2.15A1.08,1.08,0,0,0,165.16,155.37Z" style="fill: rgb(255, 255, 255); transform-origin: 165.16px 154.295px;" id="ely3nj2v41vi" class="animable"></path><path d="M393,234.07a1.07,1.07,0,0,0,0-2.14A1.07,1.07,0,0,0,393,234.07Z" style="fill: rgb(255, 255, 255); transform-origin: 393px 233px;" id="ele4t023b8ltv" class="animable"></path><path d="M394,360.44a1.08,1.08,0,0,0,0-2.15A1.08,1.08,0,0,0,394,360.44Z" style="fill: rgb(255, 255, 255); transform-origin: 394px 359.365px;" id="el7720ecxls8g" class="animable"></path><path d="M350.11,189.75a.76.76,0,0,0,0-1.52A.76.76,0,0,0,350.11,189.75Z" style="fill: rgb(255, 255, 255); transform-origin: 350.11px 188.99px;" id="ell2gdt2920gg" class="animable"></path><path d="M178.2,314.66a.76.76,0,0,0,0-1.52A.76.76,0,0,0,178.2,314.66Z" style="fill: rgb(255, 255, 255); transform-origin: 178.2px 313.9px;" id="elalvmsdy42kd" class="animable"></path><path d="M362.66,176.5c2.65,0,2.65-4.12,0-4.12S360,176.5,362.66,176.5Z" style="fill: rgb(255, 255, 255); transform-origin: 362.658px 174.44px;" id="elwh0am6yg3m" class="animable"></path></g></g></g><defs>     <filter id="active" height="200%">         <feMorphology in="SourceAlpha" result="DILATED" operator="dilate" radius="2"></feMorphology>                <feFlood flood-color="#32DFEC" flood-opacity="1" result="PINK"></feFlood>        <feComposite in="PINK" in2="DILATED" operator="in" result="OUTLINE"></feComposite>        <feMerge>            <feMergeNode in="OUTLINE"></feMergeNode>            <feMergeNode in="SourceGraphic"></feMergeNode>        </feMerge>    </filter>    <filter id="hover" height="200%">        <feMorphology in="SourceAlpha" result="DILATED" operator="dilate" radius="2"></feMorphology>                <feFlood flood-color="#ff0000" flood-opacity="0.5" result="PINK"></feFlood>        <feComposite in="PINK" in2="DILATED" operator="in" result="OUTLINE"></feComposite>        <feMerge>            <feMergeNode in="OUTLINE"></feMergeNode>            <feMergeNode in="SourceGraphic"></feMergeNode>        </feMerge>            <feColorMatrix type="matrix" values="0   0   0   0   0                0   1   0   0   0                0   0   0   0   0                0   0   0   1   0 "></feColorMatrix>    </filter></defs></svg>